<?xml version="1.0" encoding="UTF-8"?>
<svg id="Layer_1" xmlns="http://www.w3.org/2000/svg" version="1.1" viewBox="0 0 1920 1080">
  <!-- Generator: Adobe Illustrator 29.1.0, SVG Export Plug-In . SVG Version: 2.1.0 Build 142)  -->
  <defs>
    <style>
      .st0 {
        fill: none;
        
      }
    </style>
  </defs>
  <path d="M703.66,522.04l82.24-56.7h53.78l-100.1,71.31,106.81,77.37h-58.54l-84.19-61.79v61.79h-40.36v-148.69h40.36v56.7ZM1024.36,584.91c-3.68,6.57-9.2,12.3-16.56,17.21-7.36,4.91-16.54,8.78-27.54,11.63-11,2.85-23.86,4.27-38.58,4.27s-27.61-1.42-38.69-4.27c-11.08-2.85-20.29-6.73-27.65-11.63-7.36-4.9-12.88-10.64-16.56-17.21-3.68-6.56-5.52-13.56-5.52-20.99v-98.58h40.04v84.19c0,4.98.63,9.69,1.89,14.12,1.26,4.44,3.64,8.32,7.14,11.63,3.5,3.32,8.4,5.95,14.72,7.9,6.31,1.95,14.52,2.92,24.62,2.92s18.18-.97,24.46-2.92c6.28-1.95,11.16-4.58,14.66-7.9,3.5-3.32,5.86-7.2,7.09-11.63,1.23-4.44,1.84-9.14,1.84-14.12v-84.19h40.15v98.58c0,7.43-1.84,14.43-5.52,20.99M1095.74,614.02h-40.15v-148.69h100.64c10.82,0,20,1.12,27.54,3.36,7.54,2.24,13.67,5.41,18.4,9.52,4.72,4.11,8.15,9.07,10.28,14.88,2.13,5.81,3.19,12.28,3.19,19.42,0,6.28-.88,11.76-2.65,16.45-1.77,4.69-4.15,8.71-7.14,12.07-2.99,3.35-6.47,6.19-10.44,8.49-3.97,2.31-8.15,4.22-12.55,5.74l48.7,58.76h-46.96l-45.02-54.76h-43.83v54.76ZM1175.06,512.3c0-2.89-.38-5.34-1.14-7.36-.76-2.02-2.08-3.66-3.95-4.92-1.88-1.26-4.38-2.18-7.52-2.76-3.14-.58-7.05-.87-11.74-.87h-54.97v31.82h54.97c4.69,0,8.6-.29,11.74-.86,3.14-.58,5.64-1.5,7.52-2.76,1.88-1.26,3.19-2.9,3.95-4.92.76-2.02,1.14-4.47,1.14-7.36M1386.46,507.21c-2.81-1.37-6.53-2.92-11.15-4.65-4.62-1.73-9.85-3.37-15.69-4.92-5.84-1.55-12.19-2.85-19.05-3.9-6.85-1.04-13.89-1.57-21.1-1.57-5.77,0-10.7.18-14.77.54-4.08.36-7.5.83-10.28,1.41-2.78.58-4.98,1.24-6.6,2-1.62.76-2.87,1.53-3.73,2.33-.87.8-1.43,1.59-1.68,2.38-.25.79-.38,1.52-.38,2.16,0,2.16,1.08,4.06,3.25,5.68,2.16,1.62,5.12,3.07,8.88,4.33,3.75,1.26,8.11,2.45,13.09,3.57,4.98,1.12,10.26,2.27,15.85,3.46,5.59,1.19,11.36,2.49,17.31,3.9,5.95,1.41,11.72,3.05,17.31,4.92,5.59,1.88,10.88,4.06,15.85,6.55,4.98,2.49,9.34,5.39,13.09,8.71,3.75,3.32,6.71,7.14,8.87,11.47,2.16,4.33,3.25,9.27,3.25,14.82,0,7.14-1.26,13.27-3.79,18.4-2.53,5.12-5.9,9.45-10.12,12.99-4.22,3.54-9.11,6.37-14.66,8.49-5.56,2.13-11.38,3.77-17.48,4.92-6.1,1.15-12.27,1.91-18.51,2.27-6.24.36-12.17.54-17.8.54-14.72,0-28.33-1.21-40.85-3.62-12.52-2.42-23.57-5.43-33.17-9.04v-35.49c9.88,5.48,21.16,9.78,33.82,12.88,12.66,3.1,26.21,4.65,40.63,4.65,8.51,0,15.46-.45,20.83-1.35,5.37-.9,9.58-2.06,12.61-3.46,3.03-1.41,5.09-2.94,6.17-4.6,1.08-1.66,1.62-3.25,1.62-4.76,0-2.38-1.08-4.45-3.25-6.22-2.16-1.77-5.12-3.32-8.87-4.65-3.75-1.33-8.12-2.56-13.09-3.68-4.98-1.12-10.26-2.24-15.85-3.36-5.59-1.12-11.35-2.33-17.26-3.62-5.92-1.3-11.67-2.83-17.26-4.6-5.59-1.77-10.88-3.82-15.85-6.17-4.98-2.34-9.34-5.12-13.09-8.33-3.75-3.21-6.71-6.92-8.87-11.15-2.17-4.22-3.25-9.11-3.25-14.66,0-6.56,1.15-12.23,3.46-16.99,2.31-4.76,5.43-8.82,9.36-12.17,3.93-3.35,8.47-6.08,13.63-8.17,5.16-2.09,10.59-3.71,16.29-4.87,5.7-1.15,11.47-1.95,17.31-2.38s11.4-.65,16.67-.65c5.77,0,11.7.29,17.8.86,6.1.58,12.1,1.39,18.02,2.43,5.91,1.05,11.63,2.26,17.15,3.62,5.52,1.37,10.62,2.81,15.31,4.33v34.41ZM1421.48,465.33h40.15v148.69h-40.15v-148.69ZM1492.85,465.33h40.15v148.69h-40.15v-148.69ZM503.19,423.58c-64.46,0-116.72,52.26-116.72,116.72s52.26,116.72,116.72,116.72,116.72-52.26,116.72-116.72-52.26-116.72-116.72-116.72M456.22,495.83v-11.41h61.58c18.67,0,33.81,15.14,33.81,33.81v23.86c0,.96-.78,1.73-1.73,1.73-.36-.32-.72-.65-1.09-.96-3.44-2.94-7.19-5.53-11.19-7.72v-.02c0-13.86-11.25-25.08-25.11-25.04l-45.86.12v16.61h-10.46l.04-30.99ZM563.63,596.18h-32.85v-10.51c0-15.1-12.24-27.33-27.33-27.33h-36.8v37.84h-23.88v-63.55l63.81.02c31.51,0,57.06,25.54,57.06,57.06v6.48Z"/>
  <rect class="st0" width="1920" height="1080"/>
</svg>